<svg xmlns="http://www.w3.org/2000/svg" xmlns:xlink="http://www.w3.org/1999/xlink" width="176" zoomAndPan="magnify" viewBox="0 0 132 30.000001" height="40" preserveAspectRatio="xMidYMid meet" version="1.0"><defs><g/></defs><g fill="#5f6fff" fill-opacity="1"><g transform="translate(2.12903, 18.052937)"><g><path d="M 1.203125 -12 L 3.765625 -12 L 3.765625 -7.203125 L 8.578125 -7.203125 L 8.578125 -12 L 11.140625 -12 L 11.140625 0 L 8.578125 0 L 8.578125 -4.890625 L 3.765625 -4.890625 L 3.765625 0 L 1.203125 0 Z M 1.203125 -12 "/></g></g></g><g fill="#5f6fff" fill-opacity="1"><g transform="translate(13.78115, 18.052937)"><g><path d="M 1.03125 -9.078125 L 3.421875 -9.078125 L 3.421875 0 L 1.03125 0 Z M 2.234375 -10.03125 C 1.835938 -10.03125 1.507812 -10.160156 1.25 -10.421875 C 0.988281 -10.679688 0.859375 -11.007812 0.859375 -11.40625 C 0.859375 -11.789062 0.988281 -12.113281 1.25 -12.375 C 1.507812 -12.632812 1.835938 -12.765625 2.234375 -12.765625 C 2.617188 -12.765625 2.941406 -12.632812 3.203125 -12.375 C 3.460938 -12.113281 3.59375 -11.789062 3.59375 -11.40625 C 3.59375 -11.007812 3.460938 -10.679688 3.203125 -10.421875 C 2.941406 -10.160156 2.617188 -10.03125 2.234375 -10.03125 Z M 2.234375 -10.03125 "/></g></g></g><g fill="#5f6fff" fill-opacity="1"><g transform="translate(17.550778, 18.052937)"><g><path d="M 4.625 0 C 3.675781 0 2.96875 -0.226562 2.5 -0.6875 C 2.03125 -1.144531 1.796875 -1.800781 1.796875 -2.65625 L 1.796875 -6.859375 L 0.34375 -6.859375 L 0.34375 -9.078125 L 1.796875 -9.078125 L 2.140625 -11.484375 L 4.203125 -11.484375 L 4.203125 -9.078125 L 6.34375 -9.078125 L 6.34375 -6.859375 L 4.203125 -6.859375 L 4.203125 -3.078125 C 4.203125 -2.816406 4.273438 -2.609375 4.421875 -2.453125 C 4.578125 -2.304688 4.789062 -2.234375 5.0625 -2.234375 L 6.34375 -2.234375 L 6.34375 0 Z M 4.625 0 "/></g></g></g><g fill="#5f6fff" fill-opacity="1"><g transform="translate(23.890786, 18.052937)"><g><path d="M 3.6875 0.171875 C 3.195312 0.171875 2.753906 0.101562 2.359375 -0.03125 C 1.960938 -0.175781 1.625 -0.375 1.34375 -0.625 C 1.070312 -0.882812 0.863281 -1.1875 0.71875 -1.53125 C 0.582031 -1.875 0.515625 -2.25 0.515625 -2.65625 C 0.515625 -3.070312 0.585938 -3.445312 0.734375 -3.78125 C 0.878906 -4.125 1.097656 -4.421875 1.390625 -4.671875 C 1.691406 -4.929688 2.0625 -5.128906 2.5 -5.265625 C 2.9375 -5.410156 3.445312 -5.484375 4.03125 -5.484375 L 6.171875 -5.484375 L 6.171875 -5.90625 C 6.171875 -6.34375 6.03125 -6.664062 5.75 -6.875 C 5.476562 -7.09375 5.101562 -7.203125 4.625 -7.203125 C 4.28125 -7.203125 3.988281 -7.125 3.75 -6.96875 C 3.507812 -6.820312 3.34375 -6.640625 3.25 -6.421875 L 0.859375 -6.421875 C 0.941406 -6.785156 1.082031 -7.132812 1.28125 -7.46875 C 1.476562 -7.8125 1.734375 -8.113281 2.046875 -8.375 C 2.359375 -8.644531 2.734375 -8.859375 3.171875 -9.015625 C 3.617188 -9.171875 4.132812 -9.25 4.71875 -9.25 C 5.925781 -9.25 6.867188 -8.957031 7.546875 -8.375 C 8.234375 -7.789062 8.578125 -6.941406 8.578125 -5.828125 L 8.578125 0 L 6.515625 0 L 6.25 -1.03125 L 6.171875 -1.03125 C 6.078125 -0.90625 5.960938 -0.769531 5.828125 -0.625 C 5.691406 -0.476562 5.519531 -0.34375 5.3125 -0.21875 C 5.101562 -0.101562 4.863281 -0.0078125 4.59375 0.0625 C 4.332031 0.132812 4.03125 0.171875 3.6875 0.171875 Z M 4.28125 -1.796875 C 4.84375 -1.796875 5.296875 -1.953125 5.640625 -2.265625 C 5.992188 -2.585938 6.171875 -3.003906 6.171875 -3.515625 L 6.171875 -3.765625 L 4.109375 -3.765625 C 3.679688 -3.765625 3.375 -3.671875 3.1875 -3.484375 C 3 -3.304688 2.90625 -3.085938 2.90625 -2.828125 C 2.90625 -2.523438 3.015625 -2.273438 3.234375 -2.078125 C 3.453125 -1.890625 3.800781 -1.796875 4.28125 -1.796875 Z M 4.28125 -1.796875 "/></g></g></g><g fill="#5f6fff" fill-opacity="1"><g transform="translate(32.715488, 18.052937)"><g><path d="M 3.609375 0 L -0.078125 -9.078125 L 2.578125 -9.078125 L 4.796875 -3.171875 L 4.875 -3.171875 L 7.03125 -9.078125 L 9.6875 -9.078125 L 4.71875 3.421875 L 2.234375 3.421875 Z M 3.609375 0 "/></g></g></g><g fill="#5f6fff" fill-opacity="1"><g transform="translate(41.625876, 18.052937)"><g><path d="M 4.375 0.171875 C 3.882812 0.171875 3.429688 0.0859375 3.015625 -0.078125 C 2.609375 -0.242188 2.257812 -0.484375 1.96875 -0.796875 C 1.675781 -1.117188 1.445312 -1.503906 1.28125 -1.953125 C 1.113281 -2.410156 1.03125 -2.929688 1.03125 -3.515625 L 1.03125 -9.078125 L 3.421875 -9.078125 L 3.421875 -3.859375 C 3.421875 -3.253906 3.5625 -2.785156 3.84375 -2.453125 C 4.132812 -2.128906 4.539062 -1.96875 5.0625 -1.96875 C 5.570312 -1.96875 5.984375 -2.140625 6.296875 -2.484375 C 6.609375 -2.835938 6.765625 -3.296875 6.765625 -3.859375 L 6.765625 -9.078125 L 9.171875 -9.078125 L 9.171875 0 L 7.109375 0 L 6.859375 -1.03125 L 6.765625 -1.03125 C 6.472656 -0.644531 6.117188 -0.347656 5.703125 -0.140625 C 5.296875 0.0664062 4.851562 0.171875 4.375 0.171875 Z M 4.375 0.171875 "/></g></g></g><g fill="#1f2b5b" fill-opacity="1"><g transform="translate(3.213973, 21.141449)"><g><path d="M 1.75 -1.90625 L 1.75 0 L 1.453125 0 L 1.453125 -0.828125 L 0.546875 -0.828125 L 0.546875 0 L 0.25 0 L 0.25 -1.90625 L 0.546875 -1.90625 L 0.546875 -1.09375 L 1.453125 -1.09375 L 1.453125 -1.90625 Z M 1.75 -1.90625 "/></g></g></g><g fill="#1f2b5b" fill-opacity="1"><g transform="translate(6.215075, 21.141449)"><g><path d="M 1.453125 -0.25 L 1.453125 0 L 0.25 0 L 0.25 -1.90625 L 1.4375 -1.90625 L 1.4375 -1.65625 L 0.546875 -1.65625 L 0.546875 -1.078125 L 1.3125 -1.078125 L 1.3125 -0.828125 L 0.546875 -0.828125 L 0.546875 -0.25 Z M 1.453125 -0.25 "/></g></g></g><g fill="#1f2b5b" fill-opacity="1"><g transform="translate(8.809672, 21.141449)"><g><path d="M 1.34375 -0.515625 L 0.5625 -0.515625 L 0.375 0 L 0.078125 0 L 0.78125 -1.921875 L 1.125 -1.921875 L 1.828125 0 L 1.53125 0 Z M 1.25 -0.78125 L 0.953125 -1.59375 L 0.65625 -0.78125 Z M 1.25 -0.78125 "/></g></g></g><g fill="#1f2b5b" fill-opacity="1"><g transform="translate(11.702873, 21.141449)"><g><path d="M 1.328125 -0.265625 L 1.328125 0 L 0.25 0 L 0.25 -1.90625 L 0.546875 -1.90625 L 0.546875 -0.265625 Z M 1.328125 -0.265625 "/></g></g></g><g fill="#1f2b5b" fill-opacity="1"><g transform="translate(14.121819, 21.141449)"><g><path d="M 1.515625 -1.640625 L 0.953125 -1.640625 L 0.953125 0 L 0.65625 0 L 0.65625 -1.640625 L 0.09375 -1.640625 L 0.09375 -1.90625 L 1.515625 -1.90625 Z M 1.515625 -1.640625 "/></g></g></g><g fill="#1f2b5b" fill-opacity="1"><g transform="translate(16.739, 21.141449)"><g><path d="M 1.75 -1.90625 L 1.75 0 L 1.453125 0 L 1.453125 -0.828125 L 0.546875 -0.828125 L 0.546875 0 L 0.25 0 L 0.25 -1.90625 L 0.546875 -1.90625 L 0.546875 -1.09375 L 1.453125 -1.09375 L 1.453125 -1.90625 Z M 1.75 -1.90625 "/></g></g></g><g fill="#1f2b5b" fill-opacity="1"><g transform="translate(19.740103, 21.141449)"><g/></g></g><g fill="#1f2b5b" fill-opacity="1"><g transform="translate(21.293344, 21.141449)"><g><path d="M 1.078125 0.046875 C 0.867188 0.046875 0.691406 0.00390625 0.546875 -0.078125 C 0.410156 -0.160156 0.304688 -0.273438 0.234375 -0.421875 C 0.160156 -0.578125 0.125 -0.753906 0.125 -0.953125 C 0.125 -1.140625 0.160156 -1.304688 0.234375 -1.453125 C 0.304688 -1.609375 0.410156 -1.726562 0.546875 -1.8125 C 0.691406 -1.894531 0.867188 -1.9375 1.078125 -1.9375 C 1.171875 -1.9375 1.25 -1.929688 1.3125 -1.921875 C 1.382812 -1.910156 1.460938 -1.882812 1.546875 -1.84375 L 1.546875 -1.578125 C 1.398438 -1.648438 1.25 -1.6875 1.09375 -1.6875 C 0.957031 -1.6875 0.835938 -1.65625 0.734375 -1.59375 C 0.640625 -1.53125 0.566406 -1.441406 0.515625 -1.328125 C 0.460938 -1.222656 0.4375 -1.097656 0.4375 -0.953125 C 0.4375 -0.804688 0.457031 -0.675781 0.5 -0.5625 C 0.550781 -0.457031 0.625 -0.375 0.71875 -0.3125 C 0.820312 -0.25 0.941406 -0.21875 1.078125 -0.21875 C 1.160156 -0.21875 1.242188 -0.226562 1.328125 -0.25 C 1.421875 -0.28125 1.515625 -0.316406 1.609375 -0.359375 L 1.6875 -0.109375 C 1.59375 -0.0546875 1.488281 -0.0195312 1.375 0 C 1.269531 0.03125 1.171875 0.046875 1.078125 0.046875 Z M 1.078125 0.046875 "/></g></g></g><g fill="#1f2b5b" fill-opacity="1"><g transform="translate(24.07112, 21.141449)"><g><path d="M 1.328125 -0.265625 L 1.328125 0 L 0.25 0 L 0.25 -1.90625 L 0.546875 -1.90625 L 0.546875 -0.265625 Z M 1.328125 -0.265625 "/></g></g></g><g fill="#1f2b5b" fill-opacity="1"><g transform="translate(26.490066, 21.141449)"><g><path d="M 0.25 -1.90625 L 0.546875 -1.90625 L 0.546875 0 L 0.25 0 Z M 0.25 -1.90625 "/></g></g></g><g fill="#1f2b5b" fill-opacity="1"><g transform="translate(28.289218, 21.141449)"><g><path d="M 1.75 -1.90625 L 1.75 0 L 1.421875 0 L 0.546875 -1.421875 L 0.546875 0 L 0.25 0 L 0.25 -1.90625 L 0.578125 -1.90625 L 1.453125 -0.484375 L 1.453125 -1.90625 Z M 1.75 -1.90625 "/></g></g></g><g fill="#1f2b5b" fill-opacity="1"><g transform="translate(31.29032, 21.141449)"><g><path d="M 0.25 -1.90625 L 0.546875 -1.90625 L 0.546875 0 L 0.25 0 Z M 0.25 -1.90625 "/></g></g></g><g fill="#1f2b5b" fill-opacity="1"><g transform="translate(33.089471, 21.141449)"><g><path d="M 1.078125 0.046875 C 0.867188 0.046875 0.691406 0.00390625 0.546875 -0.078125 C 0.410156 -0.160156 0.304688 -0.273438 0.234375 -0.421875 C 0.160156 -0.578125 0.125 -0.753906 0.125 -0.953125 C 0.125 -1.140625 0.160156 -1.304688 0.234375 -1.453125 C 0.304688 -1.609375 0.410156 -1.726562 0.546875 -1.8125 C 0.691406 -1.894531 0.867188 -1.9375 1.078125 -1.9375 C 1.171875 -1.9375 1.25 -1.929688 1.3125 -1.921875 C 1.382812 -1.910156 1.460938 -1.882812 1.546875 -1.84375 L 1.546875 -1.578125 C 1.398438 -1.648438 1.25 -1.6875 1.09375 -1.6875 C 0.957031 -1.6875 0.835938 -1.65625 0.734375 -1.59375 C 0.640625 -1.53125 0.566406 -1.441406 0.515625 -1.328125 C 0.460938 -1.222656 0.4375 -1.097656 0.4375 -0.953125 C 0.4375 -0.804688 0.457031 -0.675781 0.5 -0.5625 C 0.550781 -0.457031 0.625 -0.375 0.71875 -0.3125 C 0.820312 -0.25 0.941406 -0.21875 1.078125 -0.21875 C 1.160156 -0.21875 1.242188 -0.226562 1.328125 -0.25 C 1.421875 -0.28125 1.515625 -0.316406 1.609375 -0.359375 L 1.6875 -0.109375 C 1.59375 -0.0546875 1.488281 -0.0195312 1.375 0 C 1.269531 0.03125 1.171875 0.046875 1.078125 0.046875 Z M 1.078125 0.046875 "/></g></g></g><path stroke-linecap="butt" transform="matrix(0.725806, 0, 0, 0.725806, 49.564962, 6.854393)" fill="none" stroke-linejoin="miter" d="M 0.0019904 1.002524 L 7.843484 1.002524 " stroke="#5f6fff" stroke-width="2" stroke-opacity="1" stroke-miterlimit="4"/><path stroke-linecap="butt" transform="matrix(0, -0.725806, 0.725806, 0, 51.685677, 10.338236)" fill="none" stroke-linejoin="miter" d="M -0.00221528 0.998171 L 7.84466 0.998171 " stroke="#5f6fff" stroke-width="2" stroke-opacity="1" stroke-miterlimit="4"/><path stroke-linecap="round" transform="matrix(0.725785, -0.00560188, 0.00560188, 0.725785, 39.640848, 20.875484)" fill="none" stroke-linejoin="miter" d="M 0.501764 0.49836 L 26.685682 0.50132 " stroke="#5f6fff" stroke-width="1" stroke-opacity="1" stroke-miterlimit="4"/></svg>