<svg xmlns="http://www.w3.org/2000/svg" xmlns:xlink="http://www.w3.org/1999/xlink" width="176" zoomAndPan="magnify" viewBox="0 0 132 30.000001" height="40" preserveAspectRatio="xMidYMid meet" version="1.0"><defs><g/><clipPath id="794db520cd"><path d="M 6 0.355469 L 36.785156 0.355469 L 36.785156 29.03125 L 6 29.03125 Z M 6 0.355469 " clip-rule="nonzero"/></clipPath><clipPath id="81f0768d93"><path d="M 2.855469 3 L 16 3 L 16 17 L 2.855469 17 Z M 2.855469 3 " clip-rule="nonzero"/></clipPath></defs><g clip-path="url(#794db520cd)"><path fill="#1f2b5b" d="M 15.390625 5.519531 C 15.390625 4.019531 14.171875 2.796875 12.671875 2.796875 C 11.171875 2.796875 9.949219 4.019531 9.949219 5.519531 C 9.949219 7.019531 11.171875 8.242188 12.671875 8.242188 C 14.171875 8.242188 15.390625 7.019531 15.390625 5.519531 Z M 36.164062 12.46875 C 35.621094 13.695312 34.714844 14.550781 33.539062 14.933594 C 32.207031 15.371094 30.726562 15.238281 29.375 14.554688 C 28.695312 14.210938 28.070312 13.773438 27.4375 13.316406 C 26.820312 12.875 26.191406 12.398438 25.566406 11.902344 C 25.542969 11.882812 25.523438 11.859375 25.511719 11.835938 C 23.621094 10.574219 21.414062 9.90625 19.128906 9.90625 C 17.785156 9.90625 16.464844 10.136719 15.210938 10.589844 L 15.210938 11.1875 L 22.359375 11.1875 L 22.359375 16.414062 L 15.210938 16.414062 L 15.210938 23.9375 L 9.851562 23.9375 L 9.851562 16.414062 L 8.773438 16.414062 C 8.019531 17.972656 7.640625 19.648438 7.640625 21.394531 C 7.640625 24.109375 8.605469 26.746094 10.355469 28.816406 L 10.144531 29.027344 C 10.019531 28.925781 9.894531 28.8125 9.769531 28.699219 L 9.761719 28.691406 C 7.753906 26.507812 6.648438 23.675781 6.648438 20.710938 C 6.648438 19.148438 6.949219 17.632812 7.542969 16.203125 C 8.199219 14.609375 9.226562 13.148438 10.511719 11.984375 C 11.800781 10.808594 13.359375 9.925781 15.019531 9.421875 C 16.121094 9.085938 17.277344 8.914062 18.445312 8.914062 C 21.285156 8.914062 24.027344 9.941406 26.167969 11.800781 C 26.792969 12.285156 27.40625 12.742188 28 13.160156 C 28.691406 13.648438 29.285156 14.035156 29.9375 14.316406 C 31.398438 14.953125 33.125 14.859375 34.332031 14.074219 C 35.203125 13.503906 35.871094 12.402344 36.117188 11.117188 C 36.339844 9.945312 36.234375 8.550781 35.828125 7.292969 C 34.917969 4.464844 32.019531 2.871094 30.375 2.171875 C 27.871094 1.109375 24.988281 0.703125 22.03125 0.996094 C 20.082031 1.191406 17.371094 1.839844 15.46875 3.816406 C 15.773438 4.3125 15.949219 4.894531 15.949219 5.519531 C 15.949219 7.324219 14.476562 8.796875 12.671875 8.796875 C 10.863281 8.796875 9.394531 7.324219 9.394531 5.519531 C 9.394531 3.710938 10.863281 2.242188 12.671875 2.242188 C 13.691406 2.242188 14.601562 2.710938 15.203125 3.441406 C 15.394531 3.242188 15.59375 3.058594 15.796875 2.890625 C 17.550781 1.417969 20.070312 0.582031 23.074219 0.472656 C 26.28125 0.351562 29.296875 1.003906 31.792969 2.351562 C 33.089844 3.050781 34.164062 3.898438 34.984375 4.871094 C 35.839844 5.890625 36.375 7.125 36.574219 8.539062 C 36.785156 10.058594 36.648438 11.382812 36.164062 12.46875 " fill-opacity="1" fill-rule="nonzero"/></g><g clip-path="url(#81f0768d93)"><path fill="#5f6fff" d="M 14.757812 5.519531 C 14.757812 6.671875 13.824219 7.605469 12.671875 7.605469 C 11.519531 7.605469 10.582031 6.671875 10.582031 5.519531 C 10.582031 4.367188 11.519531 3.433594 12.671875 3.433594 C 13.824219 3.433594 14.757812 4.367188 14.757812 5.519531 Z M 15.0625 8.289062 L 15.0625 8.695312 C 13.148438 9.148438 11.417969 10.074219 10.003906 11.339844 L 10.003906 8.023438 C 10.671875 8.734375 11.617188 9.179688 12.671875 9.179688 C 13.585938 9.179688 14.417969 8.84375 15.0625 8.289062 Z M 2.855469 16.261719 L 6.734375 16.261719 C 7.390625 14.347656 8.527344 12.660156 10.003906 11.339844 L 2.855469 11.339844 L 2.855469 16.261719 " fill-opacity="1" fill-rule="nonzero"/></g><g fill="#1f2b5b" fill-opacity="1"><g transform="translate(23.882339, 19.419931)"><g><path d="M 3.140625 0.046875 C 2.679688 0.015625 2.140625 0 1.515625 0 L 1.296875 0 L 1.296875 -9.484375 C 1.585938 -9.460938 1.796875 -9.453125 1.921875 -9.453125 L 2.203125 -9.453125 C 2.578125 -9.453125 2.890625 -9.46875 3.140625 -9.5 L 3.140625 -5.71875 L 6.484375 -5.71875 L 6.484375 -9.484375 C 6.867188 -9.460938 7.25 -9.453125 7.625 -9.453125 C 8 -9.453125 8.234375 -9.46875 8.328125 -9.5 L 8.328125 0.046875 C 8.097656 0.015625 7.644531 0 6.96875 0 L 6.484375 0 L 6.484375 -4.015625 L 3.140625 -4.015625 Z M 3.140625 0.046875 "/></g></g></g><g fill="#1f2b5b" fill-opacity="1"><g transform="translate(33.740637, 19.419931)"><g><path d="M 1.4375 -9.46875 C 1.914062 -9.457031 2.203125 -9.453125 2.296875 -9.453125 L 2.8125 -9.453125 C 3.0625 -9.453125 3.265625 -9.46875 3.421875 -9.5 L 3.40625 0 L 1.4375 0 Z M 1.4375 -9.46875 "/></g></g></g><g fill="#1f2b5b" fill-opacity="1"><g transform="translate(38.771261, 19.419931)"><g><path d="M 4.625 0.046875 C 4.40625 0.015625 3.820312 0 2.875 0 L 2.65625 0 L 2.65625 -7.859375 L 1.25 -7.859375 C 0.832031 -7.859375 0.582031 -7.835938 0.5 -7.796875 C 0.425781 -7.753906 0.367188 -7.710938 0.328125 -7.671875 L 0.3125 -7.6875 L 0.3125 -9.5 L 0.328125 -9.53125 C 0.484375 -9.476562 0.90625 -9.453125 1.59375 -9.453125 L 6.046875 -9.453125 C 6.460938 -9.453125 6.707031 -9.472656 6.78125 -9.515625 C 6.851562 -9.554688 6.910156 -9.59375 6.953125 -9.625 L 6.984375 -9.625 L 6.984375 -7.796875 L 6.953125 -7.78125 C 6.796875 -7.832031 6.378906 -7.859375 5.703125 -7.859375 L 4.625 -7.859375 Z M 4.625 0.046875 "/></g></g></g><g fill="#1f2b5b" fill-opacity="1"><g transform="translate(46.22992, 19.419931)"><g><path d="M 1.90625 0.0625 C 1.5 0.0195312 1.023438 0 0.484375 0 L -0.078125 0 L 3.015625 -8.65625 C 3.148438 -9.039062 3.21875 -9.265625 3.21875 -9.328125 C 3.21875 -9.398438 3.210938 -9.441406 3.203125 -9.453125 L 3.21875 -9.46875 C 3.519531 -9.457031 3.847656 -9.453125 4.203125 -9.453125 C 4.484375 -9.453125 4.820312 -9.457031 5.21875 -9.46875 L 5.234375 -9.453125 C 5.222656 -9.429688 5.21875 -9.40625 5.21875 -9.375 C 5.21875 -9.28125 5.285156 -9.039062 5.421875 -8.65625 L 8.578125 0.015625 C 8.484375 0.015625 8.375 0.015625 8.25 0.015625 C 8.25 0.015625 8.125 0.0078125 7.875 0 C 7.757812 0 7.65625 0 7.5625 0 L 6.453125 0 L 5.78125 -2.046875 L 2.578125 -2.046875 Z M 5.234375 -3.75 L 4.15625 -7.046875 L 3.125 -3.75 Z M 5.234375 -3.75 "/></g></g></g><g fill="#1f2b5b" fill-opacity="1"><g transform="translate(54.902604, 19.419931)"><g><path d="M 3.203125 0 C 3.265625 -0.1875 3.296875 -0.617188 3.296875 -1.296875 L 3.296875 -3.265625 C 2.472656 -5.066406 1.945312 -6.191406 1.71875 -6.640625 C 1.5 -7.085938 1.3125 -7.441406 1.15625 -7.703125 C 0.65625 -8.535156 0.351562 -9.015625 0.25 -9.140625 C 0.15625 -9.265625 0.0546875 -9.367188 -0.046875 -9.453125 L 2.40625 -9.453125 C 2.457031 -9.359375 2.523438 -9.21875 2.609375 -9.03125 L 4.328125 -5.390625 C 4.410156 -5.597656 4.503906 -5.820312 4.609375 -6.0625 C 5.648438 -8.28125 6.175781 -9.410156 6.1875 -9.453125 L 8.53125 -9.453125 C 8.289062 -9.253906 7.992188 -8.84375 7.640625 -8.21875 C 7.535156 -8.039062 7.425781 -7.832031 7.3125 -7.59375 L 5.703125 -4.25 C 5.523438 -3.84375 5.375 -3.476562 5.25 -3.15625 L 5.25 -1.125 C 5.25 -0.644531 5.273438 -0.269531 5.328125 0 Z M 3.203125 0 "/></g></g></g><g fill="#1f2b5b" fill-opacity="1"><g transform="translate(63.546891, 19.419931)"><g><path d="M 6.609375 -9.484375 C 6.898438 -9.460938 7.144531 -9.453125 7.34375 -9.453125 L 7.921875 -9.453125 C 8.117188 -9.453125 8.328125 -9.46875 8.546875 -9.5 L 8.546875 -3.625 C 8.546875 -2.457031 8.195312 -1.523438 7.5 -0.828125 C 6.820312 -0.160156 5.984375 0.171875 4.984375 0.171875 C 3.878906 0.171875 2.984375 -0.113281 2.296875 -0.6875 C 1.535156 -1.320312 1.15625 -2.25 1.15625 -3.46875 L 1.15625 -9.484375 C 1.550781 -9.460938 1.921875 -9.453125 2.265625 -9.453125 C 2.617188 -9.453125 2.90625 -9.46875 3.125 -9.5 L 3.125 -3.375 C 3.125 -2.78125 3.304688 -2.316406 3.671875 -1.984375 C 4.015625 -1.679688 4.441406 -1.53125 4.953125 -1.53125 C 5.710938 -1.53125 6.21875 -1.914062 6.46875 -2.6875 C 6.5625 -2.96875 6.609375 -3.316406 6.609375 -3.734375 Z M 6.609375 -9.484375 "/></g></g></g></svg>