<svg xmlns="http://www.w3.org/2000/svg" xmlns:xlink="http://www.w3.org/1999/xlink" width="176" zoomAndPan="magnify" viewBox="0 0 132 30.000001" height="40" preserveAspectRatio="xMidYMid meet" version="1.0"><defs><g/><clipPath id="db7c972442"><path d="M 5 0 L 36.050781 0 L 36.050781 29.03125 L 5 29.03125 Z M 5 0 " clip-rule="nonzero"/></clipPath><clipPath id="52a5020acd"><path d="M 2.5625 3 L 15 3 L 15 17 L 2.5625 17 Z M 2.5625 3 " clip-rule="nonzero"/></clipPath></defs><g clip-path="url(#db7c972442)"><path fill="#1f2b5b" d="M 14.824219 5.230469 C 14.824219 3.710938 13.589844 2.472656 12.070312 2.472656 C 10.550781 2.472656 9.3125 3.710938 9.3125 5.230469 C 9.3125 6.746094 10.550781 7.984375 12.070312 7.984375 C 13.589844 7.984375 14.824219 6.746094 14.824219 5.230469 Z M 35.855469 12.265625 C 35.304688 13.507812 34.382812 14.371094 33.199219 14.761719 C 31.847656 15.203125 30.351562 15.066406 28.980469 14.375 C 28.292969 14.027344 27.660156 13.585938 27.019531 13.125 C 26.394531 12.675781 25.757812 12.191406 25.125 11.691406 C 25.101562 11.671875 25.082031 11.648438 25.066406 11.625 C 23.152344 10.34375 20.921875 9.667969 18.609375 9.667969 C 17.246094 9.667969 15.910156 9.902344 14.644531 10.363281 L 14.644531 10.96875 L 21.878906 10.96875 L 21.878906 16.257812 L 14.644531 16.257812 L 14.644531 23.875 L 9.214844 23.875 L 9.214844 16.257812 L 8.121094 16.257812 C 7.359375 17.835938 6.976562 19.535156 6.976562 21.300781 C 6.976562 24.050781 7.953125 26.71875 9.726562 28.8125 L 9.511719 29.03125 C 9.382812 28.925781 9.257812 28.8125 9.132812 28.695312 L 9.121094 28.6875 C 7.09375 26.480469 5.972656 23.609375 5.972656 20.605469 C 5.972656 19.027344 6.277344 17.492188 6.875 16.046875 C 7.542969 14.429688 8.582031 12.953125 9.882812 11.773438 C 11.1875 10.585938 12.765625 9.6875 14.445312 9.179688 C 15.5625 8.839844 16.730469 8.667969 17.914062 8.667969 C 20.789062 8.667969 23.566406 9.703125 25.734375 11.585938 C 26.363281 12.078125 26.988281 12.542969 27.585938 12.964844 C 28.289062 13.460938 28.890625 13.847656 29.546875 14.136719 C 31.03125 14.78125 32.777344 14.683594 33.996094 13.890625 C 34.882812 13.3125 35.558594 12.195312 35.804688 10.898438 C 36.03125 9.707031 35.925781 8.296875 35.515625 7.027344 C 34.589844 4.160156 31.65625 2.546875 29.992188 1.839844 C 27.460938 0.761719 24.539062 0.351562 21.546875 0.652344 C 19.574219 0.847656 16.828125 1.503906 14.902344 3.507812 C 15.210938 4.007812 15.386719 4.597656 15.386719 5.230469 C 15.386719 7.058594 13.898438 8.546875 12.070312 8.546875 C 10.238281 8.546875 8.753906 7.058594 8.753906 5.230469 C 8.753906 3.398438 10.238281 1.910156 12.070312 1.910156 C 13.101562 1.910156 14.023438 2.382812 14.632812 3.125 C 14.828125 2.925781 15.03125 2.734375 15.234375 2.566406 C 17.011719 1.078125 19.558594 0.230469 22.601562 0.117188 C 25.847656 0 28.902344 0.65625 31.429688 2.019531 C 32.742188 2.730469 33.828125 3.585938 34.660156 4.574219 C 35.527344 5.605469 36.070312 6.851562 36.269531 8.289062 C 36.480469 9.824219 36.34375 11.164062 35.855469 12.265625 " fill-opacity="1" fill-rule="nonzero"/></g><g clip-path="url(#52a5020acd)"><path fill="#5f6fff" d="M 14.183594 5.230469 C 14.183594 6.394531 13.234375 7.339844 12.070312 7.339844 C 10.902344 7.339844 9.957031 6.394531 9.957031 5.230469 C 9.957031 4.0625 10.902344 3.117188 12.070312 3.117188 C 13.234375 3.117188 14.183594 4.0625 14.183594 5.230469 Z M 14.488281 8.035156 L 14.488281 8.445312 C 12.554688 8.902344 10.800781 9.839844 9.367188 11.121094 L 9.367188 7.765625 C 10.042969 8.484375 11.003906 8.933594 12.070312 8.933594 C 12.996094 8.933594 13.839844 8.597656 14.488281 8.035156 Z M 2.132812 16.105469 L 6.058594 16.105469 C 6.722656 14.167969 7.875 12.457031 9.367188 11.121094 L 2.132812 11.121094 L 2.132812 16.105469 " fill-opacity="1" fill-rule="nonzero"/></g><g fill="#1f2b5b" fill-opacity="1"><g transform="translate(14.209709, 23.596301)"><g><path d="M 1.859375 0.03125 C 1.585938 0.0078125 1.265625 0 0.890625 0 L 0.765625 0 L 0.765625 -5.609375 C 0.941406 -5.585938 1.066406 -5.578125 1.140625 -5.578125 L 1.3125 -5.578125 C 1.53125 -5.578125 1.710938 -5.585938 1.859375 -5.609375 L 1.859375 -3.375 L 3.828125 -3.375 L 3.828125 -5.609375 C 4.054688 -5.585938 4.28125 -5.578125 4.5 -5.578125 C 4.71875 -5.578125 4.859375 -5.585938 4.921875 -5.609375 L 4.921875 0.03125 C 4.785156 0.0078125 4.519531 0 4.125 0 L 3.828125 0 L 3.828125 -2.375 L 1.859375 -2.375 Z M 1.859375 0.03125 "/></g></g></g><g fill="#1f2b5b" fill-opacity="1"><g transform="translate(20.039541, 23.596301)"><g><path d="M 0.859375 -5.59375 C 1.128906 -5.582031 1.296875 -5.578125 1.359375 -5.578125 L 1.65625 -5.578125 C 1.8125 -5.578125 1.929688 -5.585938 2.015625 -5.609375 L 2.015625 0 L 0.859375 0 Z M 0.859375 -5.59375 "/></g></g></g><g fill="#1f2b5b" fill-opacity="1"><g transform="translate(23.014449, 23.596301)"><g><path d="M 2.734375 0.03125 C 2.597656 0.0078125 2.253906 0 1.703125 0 L 1.5625 0 L 1.5625 -4.640625 L 0.734375 -4.640625 C 0.484375 -4.640625 0.335938 -4.625 0.296875 -4.59375 C 0.253906 -4.570312 0.21875 -4.550781 0.1875 -4.53125 L 0.1875 -5.625 C 0.28125 -5.59375 0.53125 -5.578125 0.9375 -5.578125 L 3.578125 -5.578125 C 3.816406 -5.578125 3.957031 -5.585938 4 -5.609375 C 4.050781 -5.640625 4.085938 -5.664062 4.109375 -5.6875 L 4.125 -5.6875 L 4.125 -4.609375 L 4.109375 -4.59375 C 4.015625 -4.625 3.765625 -4.640625 3.359375 -4.640625 L 2.734375 -4.640625 Z M 2.734375 0.03125 "/></g></g></g><g fill="#1f2b5b" fill-opacity="1"><g transform="translate(27.425215, 23.596301)"><g><path d="M 1.125 0.03125 C 0.882812 0.0078125 0.601562 0 0.28125 0 L -0.046875 0 L 1.78125 -5.109375 C 1.863281 -5.335938 1.90625 -5.472656 1.90625 -5.515625 C 1.90625 -5.554688 1.898438 -5.578125 1.890625 -5.578125 L 1.90625 -5.59375 C 2.082031 -5.582031 2.273438 -5.578125 2.484375 -5.578125 C 2.648438 -5.578125 2.847656 -5.582031 3.078125 -5.59375 L 3.09375 -5.578125 C 3.082031 -5.566406 3.078125 -5.550781 3.078125 -5.53125 C 3.078125 -5.476562 3.117188 -5.335938 3.203125 -5.109375 L 5.0625 0.015625 C 5.007812 0.015625 4.945312 0.015625 4.875 0.015625 C 4.875 0.015625 4.800781 0.0078125 4.65625 0 C 4.582031 0 4.519531 0 4.46875 0 L 3.8125 0 L 3.421875 -1.203125 L 1.515625 -1.203125 Z M 3.09375 -2.21875 L 2.453125 -4.171875 L 1.84375 -2.21875 Z M 3.09375 -2.21875 "/></g></g></g><g fill="#1f2b5b" fill-opacity="1"><g transform="translate(32.553913, 23.596301)"><g><path d="M 1.890625 0 C 1.929688 -0.101562 1.953125 -0.359375 1.953125 -0.765625 L 1.953125 -1.9375 C 1.460938 -3 1.148438 -3.660156 1.015625 -3.921875 C 0.878906 -4.191406 0.769531 -4.398438 0.6875 -4.546875 C 0.394531 -5.046875 0.21875 -5.332031 0.15625 -5.40625 C 0.09375 -5.476562 0.03125 -5.535156 -0.03125 -5.578125 L 1.421875 -5.578125 C 1.453125 -5.523438 1.492188 -5.441406 1.546875 -5.328125 L 2.5625 -3.1875 C 2.601562 -3.300781 2.660156 -3.429688 2.734375 -3.578125 C 3.335938 -4.890625 3.644531 -5.554688 3.65625 -5.578125 L 5.046875 -5.578125 C 4.898438 -5.460938 4.722656 -5.222656 4.515625 -4.859375 C 4.453125 -4.753906 4.390625 -4.628906 4.328125 -4.484375 L 3.375 -2.515625 C 3.269531 -2.273438 3.175781 -2.0625 3.09375 -1.875 L 3.09375 -0.65625 C 3.09375 -0.382812 3.113281 -0.164062 3.15625 0 Z M 1.890625 0 "/></g></g></g><g fill="#1f2b5b" fill-opacity="1"><g transform="translate(37.665818, 23.596301)"><g><path d="M 3.90625 -5.609375 C 4.070312 -5.585938 4.210938 -5.578125 4.328125 -5.578125 L 4.6875 -5.578125 C 4.800781 -5.578125 4.921875 -5.585938 5.046875 -5.609375 L 5.046875 -2.140625 C 5.046875 -1.453125 4.835938 -0.898438 4.421875 -0.484375 C 4.023438 -0.0859375 3.53125 0.109375 2.9375 0.109375 C 2.289062 0.109375 1.765625 -0.0625 1.359375 -0.40625 C 0.910156 -0.78125 0.6875 -1.328125 0.6875 -2.046875 L 0.6875 -5.609375 C 0.914062 -5.585938 1.132812 -5.578125 1.34375 -5.578125 C 1.550781 -5.578125 1.71875 -5.585938 1.84375 -5.609375 L 1.84375 -2 C 1.84375 -1.644531 1.953125 -1.367188 2.171875 -1.171875 C 2.367188 -0.992188 2.617188 -0.90625 2.921875 -0.90625 C 3.367188 -0.90625 3.671875 -1.132812 3.828125 -1.59375 C 3.878906 -1.757812 3.90625 -1.960938 3.90625 -2.203125 Z M 3.90625 -5.609375 "/></g></g></g></svg>